<?xml version="1.0" standalone="no"?>
<!DOCTYPE svg PUBLIC "-//W3C//DTD SVG 20010904//EN"
 "http://www.w3.org/TR/2001/REC-SVG-20010904/DTD/svg10.dtd">
<svg version="1.0" xmlns="http://www.w3.org/2000/svg"
 width="512.000000pt" height="512.000000pt" viewBox="0 0 512.000000 512.000000"
 preserveAspectRatio="xMidYMid meet">

<g transform="translate(0.000000,512.000000) scale(0.100000,-0.100000)"
fill="#000000" stroke="none">
<path d="M287 5109 c-103 -24 -206 -111 -254 -214 l-28 -60 0 -565 0 -565 24
-60 c29 -72 113 -160 183 -193 25 -12 75 -26 110 -32 86 -14 1620 -14 1707 0
167 28 285 150 312 324 6 38 9 264 7 567 -4 564 -3 558 -77 655 -51 67 -111
110 -187 134 -64 19 -89 20 -913 19 -465 -1 -863 -5 -884 -10z"/>
<path d="M3060 5106 c-114 -31 -193 -95 -242 -194 l-33 -67 0 -1220 0 -1220
28 -57 c36 -74 101 -139 175 -175 l57 -28 905 0 905 0 52 27 c68 36 114 77
152 136 64 100 62 49 59 1343 l-3 1174 -24 60 c-33 82 -124 173 -206 206 l-60
24 -860 2 c-663 1 -870 -1 -905 -11z"/>
<path d="M236 2955 c-76 -31 -122 -68 -168 -136 -72 -104 -69 -41 -66 -1350
l3 -1174 24 -60 c33 -82 124 -173 206 -206 l60 -24 854 -3 c953 -3 928 -4
1031 66 66 45 111 103 139 177 21 56 21 59 19 1263 l-3 1207 -28 57 c-37 75
-99 138 -172 174 l-60 29 -890 2 -890 3 -59 -25z"/>
<path d="M3088 1700 c-114 -19 -221 -98 -272 -198 -43 -85 -47 -152 -44 -693
4 -564 3 -558 77 -655 51 -68 111 -111 189 -134 66 -20 87 -20 932 -18 l865 3
60 28 c79 37 156 114 192 191 l28 61 0 565 0 565 -24 60 c-29 72 -113 160
-183 193 -25 12 -75 26 -110 32 -75 12 -1638 12 -1710 0z"/>
</g>
</svg>
